<?xml version="1.0" encoding="UTF-8" standalone="no"?>
<svg
   xmlns:dc="http://purl.org/dc/elements/1.1/"
   xmlns:cc="http://creativecommons.org/ns#"
   xmlns:rdf="http://www.w3.org/1999/02/22-rdf-syntax-ns#"
   xmlns:svg="http://www.w3.org/2000/svg"
   xmlns="http://www.w3.org/2000/svg"
   xmlns:sodipodi="http://sodipodi.sourceforge.net/DTD/sodipodi-0.dtd"
   xmlns:inkscape="http://www.inkscape.org/namespaces/inkscape"
   inkscape:export-ydpi="96"
   inkscape:export-xdpi="96"
   inkscape:export-filename="/Users/chrisfarrell/Google Drive/WebDev/CF/1.2/portfolio_website/img/logo.png"
   sodipodi:docname="logo.svg"
   inkscape:version="1.0beta2 (2b71d25, 2019-12-03)"
   id="svg8"
   version="1.1"
   viewBox="0 0 210 297"
   height="297mm"
   width="210mm">
  <defs
     id="defs2" />
  <sodipodi:namedview
     inkscape:window-maximized="0"
     inkscape:window-y="23"
     inkscape:window-x="41"
     inkscape:window-height="771"
     inkscape:window-width="1348"
     inkscape:snap-nodes="false"
     showborder="true"
     showgrid="false"
     inkscape:document-rotation="0"
     inkscape:current-layer="layer1"
     inkscape:document-units="mm"
     inkscape:cy="629.792"
     inkscape:cx="199.05722"
     inkscape:zoom="0.35866271"
     inkscape:pageshadow="2"
     inkscape:pageopacity="0.0"
     borderopacity="1.0"
     bordercolor="#666666"
     pagecolor="#ffffff"
     id="base" />
  <metadata
     id="metadata5">
    <rdf:RDF>
      <cc:Work
         rdf:about="">
        <dc:format>image/svg+xml</dc:format>
        <dc:type
           rdf:resource="http://purl.org/dc/dcmitype/StillImage" />
        <dc:title></dc:title>
      </cc:Work>
    </rdf:RDF>
  </metadata>
  <g
     id="layer1"
     inkscape:groupmode="layer"
     inkscape:label="Layer 1">
    <g
       id="g860"
       transform="translate(4.2978515,-3.77582)">
      <path
         inkscape:connector-curvature="0"
         id="path837"
         style="font-style:normal;font-variant:normal;font-weight:500;font-stretch:normal;font-size:86.2815px;line-height:1.25;font-family:GeosansLight;-inkscape-font-specification:'GeosansLight Medium';font-variant-ligatures:normal;font-variant-caps:normal;font-variant-numeric:normal;font-variant-east-asian:normal;opacity:1;fill:#000000;fill-opacity:1;stroke:none;stroke-width:2.15704"
         d="m 105.6934,113.23682 c -9.318405,0 -16.939577,2.96213 -22.86424,8.8868 -5.867142,5.86714 -8.801013,13.46005 -8.801013,22.77845 0,9.31841 2.962649,16.93958 8.887313,22.86424 4.324437,4.32444 9.587271,7.05313 15.786633,8.1902 v -3.64009 c -5.147965,-1.10992 -9.576639,-3.51707 -13.284461,-7.22488 -5.23441,-5.23442 -7.851717,-11.96396 -7.851717,-20.18947 0,-8.2255 2.646085,-14.98435 7.938017,-20.27628 5.291932,-5.29193 12.021483,-7.93802 20.189468,-7.93802 4.77424,0 9.34746,0.89162 13.71906,2.67478 2.87605,1.20793 5.52213,2.81851 7.93801,4.83174 v -4.40025 c -2.35836,-1.84067 -4.80299,-3.24979 -7.33392,-4.22765 -4.25655,-1.55306 -9.03122,-2.32957 -14.32315,-2.32957 z m 21.65707,51.76842 c -3.33622,2.41588 -6.09742,4.17034 -8.28321,5.26324 -3.71824,1.80278 -8.07287,2.72035 -13.06019,2.75745 v 3.53571 c 0.69225,-0.007 1.36697,-0.0307 2.0159,-0.0806 0.74777,0 1.43846,-0.0288 2.07119,-0.0863 5.52202,-0.51768 9.89327,-1.95559 13.11445,-4.31395 l 4.14186,-3.01997 z" />
      <path
         inkscape:connector-curvature="0"
         id="path839"
         style="font-style:normal;font-variant:normal;font-weight:500;font-stretch:normal;font-size:86.2815px;line-height:1.25;font-family:GeosansLight;-inkscape-font-specification:'GeosansLight Medium';font-variant-ligatures:normal;font-variant-caps:normal;font-variant-numeric:normal;font-variant-east-asian:normal;opacity:1;fill:#000000;fill-opacity:1;stroke:none;stroke-width:2.15704"
         d="m 127.37615,159.2181 v -3.53754 h -23.296 v -22.43319 h 23.296 v -3.53754 h -26.74726 v 61.60499 h 3.45126 V 159.2181 Z" />
    </g>
  </g>
</svg>
